<svg width="124" height="21" viewBox="0 0 124 21" fill="none" xmlns="http://www.w3.org/2000/svg">
<path d="M10.9116 1.2436L13.908 7.00509L20.6063 7.92921C20.7797 7.95359 20.9235 8.06878 20.9775 8.22653C21.0315 8.38428 20.9864 8.55735 20.861 8.67325L16.0151 13.157L17.1592 19.4893C17.1893 19.6526 17.1186 19.8179 16.9769 19.9155C16.8353 20.0131 16.6473 20.026 16.4922 19.9488L10.5007 16.9597L4.50919 19.9497C4.3542 20.0271 4.16609 20.0144 4.02434 19.9169C3.88258 19.8193 3.8119 19.6539 3.84215 19.4906L4.9863 13.157L0.138953 8.67325C0.0135841 8.55735 -0.0315455 8.38428 0.0224676 8.22653C0.0764806 8.06878 0.220312 7.95359 0.393716 7.92921L7.09197 7.00509L10.0898 1.2436C10.1661 1.09462 10.3257 1 10.5007 1C10.6757 1 10.8353 1.09462 10.9116 1.2436Z" fill="#FCAD38"/>
<path d="M36.392 1.2436L39.2457 7.00509L45.625 7.92921C45.7902 7.95359 45.9272 8.06878 45.9786 8.22653C46.03 8.38428 45.9871 8.55735 45.8677 8.67325L41.2524 13.157L42.3421 19.4893C42.3708 19.6526 42.3034 19.8179 42.1685 19.9155C42.0336 20.0131 41.8545 20.026 41.7068 19.9488L36.0007 16.9597L30.2945 19.9497C30.1469 20.0271 29.9677 20.0144 29.8327 19.9169C29.6977 19.8193 29.6304 19.6539 29.6592 19.4906L30.7489 13.157L26.1323 8.67325C26.0129 8.55735 25.97 8.38428 26.0214 8.22653C26.0728 8.06878 26.2098 7.95359 26.375 7.92921L32.7543 7.00509L35.6093 1.2436C35.682 1.09462 35.834 1 36.0007 1C36.1673 1 36.3193 1.09462 36.392 1.2436Z" fill="#FCAD38"/>
<path d="M61.9116 1.2436L64.908 7.00509L71.6063 7.92921C71.7797 7.95359 71.9235 8.06878 71.9775 8.22653C72.0315 8.38428 71.9864 8.55735 71.861 8.67325L67.0151 13.157L68.1592 19.4893C68.1893 19.6526 68.1186 19.8179 67.9769 19.9155C67.8353 20.0131 67.6473 20.026 67.4922 19.9488L61.5007 16.9597L55.5092 19.9497C55.3542 20.0271 55.1661 20.0144 55.0243 19.9169C54.8826 19.8193 54.8119 19.6539 54.8421 19.4906L55.9863 13.157L51.139 8.67325C51.0136 8.55735 50.9685 8.38428 51.0225 8.22653C51.0765 8.06878 51.2203 7.95359 51.3937 7.92921L58.092 7.00509L61.0898 1.2436C61.1661 1.09462 61.3257 1 61.5007 1C61.6757 1 61.8353 1.09462 61.9116 1.2436Z" fill="#FCAD38"/>
<path d="M87.392 1.2436L90.2457 7.00509L96.625 7.92921C96.7902 7.95359 96.9272 8.06878 96.9786 8.22653C97.03 8.38428 96.9871 8.55735 96.8677 8.67325L92.2524 13.157L93.3421 19.4893C93.3708 19.6526 93.3034 19.8179 93.1685 19.9155C93.0336 20.0131 92.8545 20.026 92.7068 19.9488L87.0007 16.9597L81.2945 19.9497C81.1469 20.0271 80.9677 20.0144 80.8327 19.9169C80.6977 19.8193 80.6304 19.6539 80.6592 19.4906L81.7489 13.157L77.1323 8.67325C77.0129 8.55735 76.97 8.38428 77.0214 8.22653C77.0728 8.06878 77.2098 7.95359 77.375 7.92921L83.7543 7.00509L86.6093 1.2436C86.682 1.09462 86.834 1 87.0007 1C87.1673 1 87.3193 1.09462 87.392 1.2436Z" fill="#FCAD38"/>
<path d="M112.912 1.2436L115.908 7.00509L122.606 7.92921C122.78 7.95359 122.924 8.06878 122.978 8.22653C123.032 8.38428 122.986 8.55735 122.861 8.67325L118.015 13.157L119.159 19.4893C119.189 19.6526 119.119 19.8179 118.977 19.9155C118.835 20.0131 118.647 20.026 118.492 19.9488L112.501 16.9597L106.509 19.9497C106.354 20.0271 106.166 20.0144 106.024 19.9169C105.883 19.8193 105.812 19.6539 105.842 19.4906L106.986 13.157L102.139 8.67325C102.014 8.55735 101.968 8.38428 102.022 8.22653C102.076 8.06878 102.22 7.95359 102.394 7.92921L109.092 7.00509L112.09 1.2436C112.166 1.09462 112.326 1 112.501 1C112.676 1 112.835 1.09462 112.912 1.2436Z" stroke="white"/>
</svg>
